<svg viewBox="0 0 700 700" height="700" width="700" xmlns="http://www.w3.org/2000/svg" version="1.1"><g transform-origin="center" transform="scale(1, 1) rotate(0)"><rect x="0" y="0" width="700" height="700" fill="#ffffff"></rect><linearGradient id="linear-gradient-r5"><stop offset="0%" stop-color="#000000" stop-opacity="100%"></stop><stop offset="100%" stop-color="#000000" stop-opacity="100%"></stop></linearGradient><filter id="shadow-r5" y="-20%" height="150%" x="-20%" width="150%"><feDropShadow dx="0" dy="0" stdDeviation="10" flood-color="#00000000"></feDropShadow></filter><linearGradient id="ghost-linear-gradient-r5"><stop offset="0%" stop-color="#dedede" stop-opacity="100%"></stop><stop offset="100%" stop-color="#bdbdbd" stop-opacity="100%"></stop></linearGradient><path d="M -125 623 l61.529864483266415 -115.95716562168674 l49.043727521784604 97.93358221929522 l64.58861864089747 -111.03096155729146 l57.9741315445041 112.31623290851714 l46.23223672949654 -140.59439768828452 l68.22502628763152 128.8255686527118 l70.78192830852726 -101.05647335574032 l55.19140522516168 107.8345789415762 l36.21276519274997 -156.73102026851848 l74.998831125935 139.73495960282162 l57.098627087851874 -123.09379005851225 l67.6926421037163 127.96814991440625 l38.1227371647187 -153.6549601452425 l51.4952440425644 101.88181408960374 l66.35532987331423 -108.1856266250834 l61.523804903468665 118.03307526558639 l55.476651536026864 -125.7060243682936" fill="none" stroke-linecap="butt" stroke-linejoin="miter" stroke="url(#ghost-linear-gradient-r5)" stroke-width="41" style="transform-origin: center center; transform: scale(1.1, 1.1); transition: all 0.4s cubic-bezier(0.16, 1, 0.3, 1) 0s;"></path><path d="M -125 623 l61.529864483266415 -115.95716562168674 l49.043727521784604 97.93358221929522 l64.58861864089747 -111.03096155729146 l57.9741315445041 112.31623290851714 l46.23223672949654 -140.59439768828452 l68.22502628763152 128.8255686527118 l70.78192830852726 -101.05647335574032 l55.19140522516168 107.8345789415762 l36.21276519274997 -156.73102026851848 l74.998831125935 139.73495960282162 l57.098627087851874 -123.09379005851225 l67.6926421037163 127.96814991440625 l38.1227371647187 -153.6549601452425 l51.4952440425644 101.88181408960374 l66.35532987331423 -108.1856266250834 l61.523804903468665 118.03307526558639 l55.476651536026864 -125.7060243682936" fill="none" stroke-linecap="butt" stroke-linejoin="miter" filter="url(#shadow-r5)" stroke="url(#linear-gradient-r5)" stroke-width="41" style="transform-origin: center center; transition: all 0.4s cubic-bezier(0.16, 1, 0.3, 1) 0s;"></path></g></svg>